<?xml version="1.0" encoding="UTF-8"?>
<svg version="1.1" xmlns="http://www.w3.org/2000/svg" width="32" height="32">
<path d="M0 0 C10.56 0 21.12 0 32 0 C32 10.56 32 21.12 32 32 C21.44 32 10.88 32 0 32 C0 21.44 0 10.88 0 0 Z " fill="#F87240" transform="translate(0,0)"/>
<path d="M0 0 C4.62 0 9.24 0 14 0 C14 1.98 14 3.96 14 6 C10.7 6.33 7.4 6.66 4 7 C4 7.66 4 8.32 4 9 C6.64 8.67 9.28 8.34 12 8 C12 9.98 12 11.96 12 14 C10.35 14 8.7 14 7 14 C7 15.32 7 16.64 7 18 C4.69 18 2.38 18 0 18 C0 12.06 0 6.12 0 0 Z " fill="#FEF4F0" transform="translate(9,7)"/>
</svg>
