<?xml version="1.0" encoding="UTF-8"?>
<svg version="1.1" xmlns="http://www.w3.org/2000/svg" width="512" height="512">
<path d="M0 0 C1.38739648 -0.00330291 2.77479201 -0.00702938 4.16218632 -0.01114148 C7.96535326 -0.02112126 11.76850441 -0.02487177 15.57168257 -0.02753079 C19.67760675 -0.0314459 23.78351857 -0.04102344 27.88943481 -0.04974365 C37.80140863 -0.06947526 47.71338342 -0.07957061 57.62537196 -0.08847144 C62.29968903 -0.09286023 66.97400497 -0.09822555 71.64832115 -0.10346031 C87.198558 -0.12047017 102.74879416 -0.13496228 118.29903889 -0.14220905 C122.33137322 -0.14411877 126.36370756 -0.14603913 130.39604187 -0.147995 C131.89926341 -0.14872061 131.89926341 -0.14872061 133.43285307 -0.14946087 C149.65126467 -0.15775351 165.86960233 -0.18307855 182.08798168 -0.21557567 C198.76049463 -0.24870879 215.4329701 -0.2666635 232.10551614 -0.26985329 C241.4577739 -0.27201273 250.80992388 -0.28067801 260.16214943 -0.30631447 C268.13030633 -0.32810715 276.09832924 -0.33603005 284.06651256 -0.32634769 C288.12550503 -0.3218275 292.18422156 -0.32355459 296.24317551 -0.34310913 C330.5066031 -0.4989899 358.57640929 5.6455737 383.94755554 30.20967102 C399.97828596 46.24503259 411.54140578 70.20984005 411.58177662 93.11384964 C411.58623446 94.29208306 411.59069231 95.47031647 411.59528524 96.68425393 C411.59500869 98.61233191 411.59500869 98.61233191 411.59472656 100.57936096 C411.59802846 101.96589439 411.60175471 103.35242686 411.60586804 104.73895812 C411.61585961 108.5443844 411.61960026 112.3497949 411.62225735 116.15523243 C411.62616901 120.26185586 411.6357469 124.3684669 411.64447021 128.4750824 C411.66421297 138.39192331 411.67429922 148.30876521 411.683198 158.22562087 C411.68758553 162.90143438 411.69295123 167.57724676 411.69818687 172.25305939 C411.71519891 187.80754486 411.72969068 203.36202964 411.73693562 218.91652298 C411.73884536 222.95108796 411.74076571 226.98565294 411.74272156 231.0202179 C411.7432053 232.02293109 411.74368904 233.02564429 411.74418744 234.05874273 C411.75247875 250.28368443 411.77780059 266.5085522 411.81030224 282.73346165 C411.84343563 299.410463 411.86139014 316.08742686 411.86457986 332.76446128 C411.86673942 342.12008738 411.8754064 351.47560574 411.90104103 360.83119965 C411.9228342 368.80304055 411.93075643 376.77474753 411.92107425 384.74661484 C411.91655402 388.80762557 411.91828138 392.8683605 411.93783569 396.92933273 C412.09221577 430.88025712 406.20034922 459.21688326 381.63505554 484.27217102 C356.74497073 508.94301076 326.76398708 512.62223144 293.31940377 512.53934503 C289.22595704 512.53249836 285.13254739 512.54306327 281.03910828 512.55128479 C273.04048496 512.56456459 265.04194651 512.5617703 257.04331999 512.55304687 C250.53829336 512.54624842 244.03329036 512.5453629 237.52826118 512.54861832 C236.1350641 512.54930787 236.1350641 512.54930787 234.71372162 512.55001134 C232.82640313 512.5509706 230.93908464 512.55194324 229.05176616 512.55292912 C211.39044416 512.56146603 193.72916902 512.55167536 176.06785471 512.53552802 C160.93927126 512.52212417 145.81075689 512.52445679 130.68217468 512.5382843 C113.0788594 512.55436637 95.47558509 512.56064455 77.87226349 512.55144751 C75.99252038 512.55049194 74.11277726 512.54954883 72.23303413 512.54861832 C71.30835946 512.54815549 70.38368478 512.54769266 69.43098966 512.54721581 C62.93914577 512.54463396 56.44732804 512.54897944 49.9554882 512.55605698 C42.03650753 512.56450133 34.11761597 512.56213035 26.19864541 512.54621474 C22.16432025 512.53837168 18.13014328 512.5351721 14.09581947 512.5451622 C10.39287373 512.55419254 6.69021161 512.54904139 2.98729111 512.53322954 C1.03470069 512.52836408 -0.9179099 512.53800297 -2.87047869 512.54840124 C-26.25721298 512.39515587 -47.67065162 504.16787701 -65.55244446 489.14717102 C-66.30267883 488.53099915 -67.05291321 487.91482727 -67.82588196 487.27998352 C-85.60492864 472.1708278 -98.38357526 448.55838745 -100.55244446 425.14717102 C-100.70323704 420.63571808 -100.69594032 416.12615135 -100.69288635 411.61250305 C-100.69547263 410.2270935 -100.69848652 408.84168468 -100.70188975 407.45627689 C-100.70993233 403.6587174 -100.71174779 399.86117684 -100.71248722 396.06360984 C-100.7143426 391.96387971 -100.72189243 387.8641593 -100.72862244 383.76443481 C-100.74218742 374.8033855 -100.7482278 365.84234068 -100.75263309 356.88128281 C-100.75539898 351.28144486 -100.75963699 345.68160863 -100.76413727 340.08177185 C-100.77632821 324.5649832 -100.78662743 309.04819592 -100.79001236 293.53140259 C-100.79023193 292.53883687 -100.79045149 291.54627116 -100.79067771 290.5236277 C-100.79089599 289.52873882 -100.79111427 288.53384993 -100.79133916 287.5088129 C-100.79178262 285.49292056 -100.79222918 283.47702821 -100.79267883 281.46113586 C-100.79290026 280.46119185 -100.79312169 279.46124784 -100.79334983 278.4310025 C-100.79729521 262.23967814 -100.81474209 246.04839886 -100.83803836 229.8570919 C-100.86178571 213.21736347 -100.87421577 196.57765763 -100.87538028 179.93791199 C-100.87629521 170.60198002 -100.88200145 161.26610678 -100.90019989 151.93019104 C-100.91564669 143.97806568 -100.92069447 136.02601718 -100.91246179 128.07387966 C-100.90857126 124.02138155 -100.90940609 119.96903802 -100.92351913 115.91655922 C-100.93635483 112.19661383 -100.93497698 108.47693763 -100.92292842 104.7569921 C-100.92007848 102.7950157 -100.93183354 100.83303421 -100.94435048 98.87109566 C-100.8120062 74.78239889 -91.93577899 52.56113754 -76.55244446 34.14717102 C-75.80994446 33.15717102 -75.06744446 32.16717102 -74.30244446 31.14717102 C-55.99835788 9.55313424 -27.34354028 -0.00393079 0 0 Z " fill="#F8703D" transform="translate(100.55244445800781,-0.1471710205078125)"/>
<path d="M0 0 C1.31572209 -0.00573832 1.31572209 -0.00573832 2.65802443 -0.01159257 C5.60285694 -0.02192717 8.54749464 -0.01792952 11.49234009 -0.01396179 C13.60139649 -0.01830803 15.71045132 -0.02349088 17.81950378 -0.02944946 C23.55297575 -0.04286073 29.28638187 -0.04341572 35.01986647 -0.04088616 C39.80376392 -0.03981781 44.58764798 -0.04469638 49.37154257 -0.04949158 C60.65677299 -0.06059431 71.94197013 -0.06101999 83.22720337 -0.05497742 C94.87424998 -0.04893705 106.5211758 -0.06124855 118.1682018 -0.08254749 C128.1632058 -0.10015415 138.15817132 -0.10616628 148.15319026 -0.10290974 C154.12478774 -0.10109513 160.09629908 -0.10375083 166.06788254 -0.11762428 C171.68376628 -0.13018261 177.29946155 -0.12827733 182.91534233 -0.11521339 C184.97689947 -0.11284365 187.03846979 -0.11559648 189.10001183 -0.12383652 C191.91365532 -0.13427202 194.72666273 -0.12622887 197.5402832 -0.11352539 C198.35663156 -0.12089968 199.17297992 -0.12827396 200.0140661 -0.13587171 C206.05120958 -0.07850569 210.20541574 1.22128626 214.74076843 5.44148254 C216.89135402 9.10190201 216.95200709 12.24165528 216.89883423 16.36811829 C216.90693871 17.57148582 216.90693871 17.57148582 216.91520691 18.79916382 C216.92768313 21.44297016 216.91121109 24.08568514 216.89321899 26.72944641 C216.89337401 28.57120318 216.89486339 30.41296027 216.89762878 32.25471497 C216.89901228 36.11151073 216.88646304 39.96793438 216.86367798 43.82466125 C216.8352935 48.76447557 216.83803133 53.70367174 216.85076809 58.6435318 C216.85772827 62.44570684 216.8499321 66.2477394 216.83751106 70.04989624 C216.83299986 71.87112888 216.83265687 73.69237683 216.83657646 75.51361084 C216.83949202 78.06048351 216.8229657 80.60650902 216.80117798 83.15327454 C216.80793045 84.27869408 216.80793045 84.27869408 216.81481934 85.42684937 C216.75168091 89.87648713 216.30674883 92.83035281 213.39712524 96.26069641 C208.45870087 99.62840417 203.98063485 99.72120409 198.21401978 99.74409485 C196.8567276 99.76643692 196.8567276 99.76643692 195.47201538 99.78923035 C192.49125222 99.83289378 189.51096757 99.85346355 186.52993774 99.87007141 C184.45017493 99.8873397 182.37041215 99.90461272 180.29064941 99.92189026 C175.93468003 99.95336088 171.57887582 99.97092832 167.22280884 99.98139954 C161.65142314 99.99786248 156.08223404 100.06997789 150.51153755 100.1553154 C146.21683436 100.21128816 141.92265778 100.22681579 137.6276207 100.23140717 C135.5742883 100.24046466 133.52096357 100.2644773 131.46799088 100.30396271 C115.36606344 100.59160547 115.36606344 100.59160547 110.46127319 97.27619934 C108.33804321 94.85151672 108.33804321 94.85151672 106.81311035 92.43287659 C104.52485124 88.92259173 101.19424645 87.72345967 97.39712524 86.26069641 C96.64002762 85.92172333 95.88292999 85.58275024 95.10289001 85.23350525 C92.27116448 84.21540949 90.14474353 83.9864674 87.14785767 83.94184875 C85.61683662 83.91204422 85.61683662 83.91204422 84.05488586 83.88163757 C82.96512955 83.87008636 81.87537323 83.85853516 80.75259399 83.84663391 C79.62767044 83.82726776 78.50274689 83.80790161 77.34373474 83.78794861 C73.75744158 83.72825931 70.17111615 83.68180947 66.58462524 83.63569641 C64.1503666 83.59750689 61.71612133 83.55845459 59.28189087 83.51850891 C53.32041117 83.42256627 47.35886822 83.3384954 41.39712524 83.26069641 C41.39712524 88.21069641 41.39712524 93.16069641 41.39712524 98.26069641 C42.47196167 98.24498596 43.5467981 98.22927551 44.65420532 98.21308899 C48.64045727 98.1588053 52.62667652 98.1243522 56.6131897 98.09590149 C58.33883151 98.08081125 60.06443496 98.06033666 61.78994751 98.03437805 C64.26978012 97.99800432 66.74910588 97.98097282 69.22915649 97.96772766 C70.00112869 97.9522438 70.77310089 97.93675995 71.56846619 97.92080688 C76.88709111 97.91913426 76.88709111 97.91913426 79.41934204 99.61494446 C80.39712524 101.26069641 80.39712524 101.26069641 80.20962524 103.88569641 C79.39712524 106.26069641 79.39712524 106.26069641 77.39712524 107.26069641 C74.69819343 107.34745179 72.02543294 107.37627539 69.32681274 107.35835266 C68.53058502 107.35693771 67.7343573 107.35552277 66.91400146 107.35406494 C64.36667144 107.34845986 61.81942878 107.33590655 59.27212524 107.32319641 C57.5468661 107.31818206 55.82160557 107.31361904 54.09634399 107.30952454 C49.86323733 107.29848878 45.63019611 107.28122077 41.39712524 107.26069641 C41.39712524 111.88069641 41.39712524 116.50069641 41.39712524 121.26069641 C42.50749146 121.24498596 43.61785767 121.22927551 44.76187134 121.21308899 C48.8729632 121.15887772 52.98402335 121.12437866 57.09536743 121.09590149 C58.87634591 121.08079469 60.65728708 121.06030807 62.43814087 121.03437805 C64.99487503 120.99807698 67.55111835 120.98098953 70.10806274 120.96772766 C71.30657364 120.94450188 71.30657364 120.94450188 72.52929688 120.92080688 C74.77359009 120.92012024 74.77359009 120.92012024 78.39712524 121.26069641 C80.39712524 124.26069641 80.39712524 124.26069641 80.14712524 126.32319641 C79.39712524 128.26069641 79.39712524 128.26069641 77.39712524 130.26069641 C74.67226796 130.43587388 72.05053162 130.49218774 69.32681274 130.45600891 C68.53058502 130.45317902 67.7343573 130.45034912 66.91400146 130.44743347 C64.36655762 130.43622281 61.81946314 130.41111703 59.27212524 130.38569641 C57.5468699 130.37566774 55.82160905 130.36654169 54.09634399 130.35835266 C49.86313611 130.33628063 45.63018994 130.30174508 41.39712524 130.26069641 C41.39712524 134.88069641 41.39712524 139.50069641 41.39712524 144.26069641 C48.47765337 144.21636189 55.55730522 144.14633549 62.63735962 144.05317688 C65.04256186 144.02506664 67.44785477 144.00380299 69.85317993 143.98970032 C73.32402638 143.96813333 76.79379398 143.92141054 80.26431274 143.87007141 C81.86023758 143.86822845 81.86023758 143.86822845 83.48840332 143.86634827 C92.22910668 143.69742328 100.41030453 141.87513837 106.89712524 135.63569641 C107.84071899 134.75011047 107.84071899 134.75011047 108.80337524 133.84663391 C110.002927 132.65296231 111.20050995 131.4573117 112.39712524 130.26069641 C115.06491089 129.99327087 115.06491089 129.99327087 118.49575806 129.97016907 C119.77758972 129.95740936 121.05942139 129.94464966 122.38009644 129.9315033 C123.78681284 129.92844512 125.19353127 129.92621764 126.60025024 129.92475891 C128.04033543 129.91833268 129.48041929 129.91160445 130.92050171 129.90458679 C133.94350203 129.89259789 136.96638797 129.88890738 139.9894104 129.89009094 C143.85428432 129.8902937 147.71841931 129.8630447 151.58311844 129.82854652 C154.56008231 129.80624871 157.53686957 129.80225434 160.51390839 129.80331039 C161.93801153 129.80095672 163.36211971 129.79214623 164.78614044 129.77664566 C166.78430133 129.75694074 168.78267884 129.76535774 170.78091431 129.77485657 C171.91627625 129.77200653 173.05163818 129.76915649 174.22140503 129.76622009 C178.15139991 130.37814094 180.3048451 131.80061963 183.39712524 134.26069641 C185.7729985 137.82450629 185.69956005 140.36733676 185.70352173 144.48262024 C185.716007 145.58072777 185.716007 145.58072777 185.72874451 146.70101929 C185.75285651 149.12330941 185.7616186 151.54533022 185.76821899 153.96772766 C185.77718548 155.65300579 185.78630733 157.33828309 185.795578 159.02355957 C185.81207454 162.55843541 185.81976913 166.09321647 185.82266235 169.62812805 C185.82804235 174.1510798 185.86570289 178.67313678 185.91140652 183.19583607 C185.94119715 186.67806218 185.94838636 190.16007354 185.9493885 193.642416 C185.95358801 195.30935953 185.96601162 196.97630386 185.98690605 198.64312172 C186.01385969 200.97960625 186.00898478 203.31402673 185.99649048 205.65058899 C186.01132477 206.33496033 186.02615906 207.01933167 186.04144287 207.72444153 C185.98610608 211.37093361 185.36618667 213.76791117 183.17216492 216.61132812 C178.60501449 220.97164903 175.15749029 221.50987822 168.95791626 221.50019836 C167.67631119 221.5039296 166.39470612 221.50766083 165.07426453 221.51150513 C164.39442064 221.50920206 163.71457676 221.50689899 163.01413155 221.50452614 C160.87377639 221.4989061 158.73395776 221.50813453 156.59364319 221.52172852 C150.5111036 221.55874725 144.42874911 221.5774002 138.34609985 221.56611633 C134.61827101 221.56025062 130.89120068 221.57859203 127.16352654 221.61200523 C125.74784401 221.61993468 124.33207829 221.61871551 122.91641426 221.60798073 C114.1985693 221.21978808 114.1985693 221.21978808 106.5453186 224.67549133 C102.96685859 228.98192537 103.24875265 232.33880937 103.22134399 237.74116516 C103.19813434 239.48010941 103.17401655 241.21904172 103.14907837 242.95796204 C103.11405083 245.69868312 103.0846706 248.43896882 103.07119751 251.17988586 C103.05564568 253.82585057 103.01537956 256.47054057 102.97134399 259.11616516 C102.97325241 259.92683945 102.97516083 260.73751373 102.97712708 261.57275391 C102.85625882 267.24440924 101.83342369 270.68314949 98.39712524 275.26069641 C93.18142187 278.70228747 88.57055504 278.69447104 82.53970337 278.66474915 C81.07517982 278.67504402 81.07517982 278.67504402 79.58106995 278.68554688 C76.36335588 278.70380359 73.14612984 278.69997928 69.92837524 278.69429016 C67.68687786 278.6988521 65.44538189 278.70415771 63.20388794 278.71017456 C58.50994172 278.71910317 53.81616568 278.71668482 49.1222229 278.70674133 C43.10970559 278.69524512 37.09777501 278.71547489 31.08533478 278.74465847 C26.45789872 278.76301036 21.83060358 278.7627301 17.20314026 278.75702095 C14.98638587 278.75686765 12.76962198 278.76291912 10.55290222 278.77531242 C7.45307652 278.79020311 4.35433895 278.77955923 1.25454712 278.7624054 C0.34112045 278.77207336 -0.57230621 278.78174133 -1.51341248 278.79170227 C-7.01353818 278.72802371 -10.32570036 278.05505162 -14.60287476 274.26069641 C-18.50313142 269.52089842 -18.02851291 264.63432065 -17.99728394 258.79122925 C-18.00337504 257.72538335 -18.00946614 256.65953746 -18.01574183 255.5613932 C-18.03241319 251.98392099 -18.02758999 248.40680309 -18.02279663 244.82929993 C-18.0301345 242.26689788 -18.0387199 239.70449914 -18.04846191 237.1421051 C-18.06840317 230.9009517 -18.07405695 224.65992905 -18.07227403 218.41874809 C-18.07096635 213.34596643 -18.07477082 208.27321375 -18.0821991 203.20043755 C-18.08429829 201.73918325 -18.08639589 200.27792895 -18.08849192 198.81667465 C-18.08953544 198.08936852 -18.09057897 197.36206238 -18.09165412 196.61271667 C-18.11055516 182.8584264 -18.10950662 169.10418947 -18.1026848 155.3498916 C-18.09710848 142.76708541 -18.11793866 130.18448277 -18.15104526 117.60172416 C-18.18477732 104.68095755 -18.19995127 91.76028847 -18.19532824 78.839477 C-18.19308317 71.58570484 -18.19833214 64.33212086 -18.22322083 57.07838631 C-18.24642236 50.25832084 -18.24365728 43.43874896 -18.2232933 36.61865234 C-18.21987327 34.11363841 -18.22501475 31.6085962 -18.23927689 29.10362053 C-18.25738602 25.68763002 -18.24478042 22.27309284 -18.22433472 18.85714722 C-18.23685256 17.86249736 -18.24937041 16.8678475 -18.26226759 15.84305674 C-18.20575739 11.44860384 -18.09182624 8.25866266 -15.31403351 4.72341824 C-10.28210327 0.15258873 -6.69678325 -0.03083456 0 0 Z " fill="#FEFEFE" transform="translate(156.60287475585938,116.73930358886719)"/>
</svg>
